<?xml version='1.0' encoding='ASCII' standalone='yes'?>
<svg xmlns="http://www.w3.org/2000/svg" viewBox="0 0 475.19 112.03">
  <defs>
    <style>.cls-1{stroke:#000;stroke-miterlimit:10;stroke-width:3px;}</style>
  </defs>
  <title>box</title>
  <g id="Layer_2" data-name="Layer 2">
    <g id="Layer_2-2" data-name="Layer 2">
      <path class="cls-1" d="M473.64,103.31q-6-23.85-9.92-48.07-2.07-13-3.49-26.07c-.56-5.15.43-13.23-3.1-17.66s-13.55-3.73-18.82-4.16c-8.93-.72-17.87-1.21-26.83-1.55-18.3-.7-36.63-.82-54.95-1Q245.78,3.73,135,4.54,76,5,17,5.93c.1-.68.19-1.36.3-2,.36-2.39-3.67-3.43-4-1-.16,1-.3,2.08-.46,3.12L9.62,6a1.9,1.9,0,1,0,0,3.8l2.59,0Q9,32.11,6.38,54.49q-1.48,13-2.73,26.09-.58,6.06-1.1,12.13c-.36,4.11-1.41,8.73-.93,12.82.79,6.65,9.73,4.78,14.92,4.7l29.12-.44,58.24-.88,235-3.56c44.23-.66,88.49-1.2,132.7.37A2,2,0,0,0,473.64,103.31Zm-226.22-.38-224.63,3.4c-4.14.06-13.09,1.73-15.77-1.1S6.57,94.62,6.9,90.84q1.23-14,2.74-28Q12.5,36.26,16.4,9.74,119.59,8.06,222.79,8q53.29,0,106.59.38c35.6.27,71.39-.11,106.88,2.62,4.89.38,12.55-.1,16.34,2.71,3.6,2.67,2.74,8.67,3.16,12.71q1.31,12.66,3.22,25.26,3.81,25.26,10,50.15C395.21,99.34,321.21,101.82,247.42,102.93Z"/>
    </g>
  </g>
<svg viewBox="150 -10 1 85">
  <title>E</title>
  <g id="Layer_2" data-name="Layer 2">
    <g id="Layer_2-2" data-name="Layer 2">
      <path d="M0,2.85A340.2,340.2,0,0,1,2.41,55.22c-.12,3.86,5.88,3.86,6,0A340.2,340.2,0,0,0,6,2.85C5.56-.93-.45-1,0,2.85Z"/>
      <path d="M9.24,10.57a213.53,213.53,0,0,1,36.9-3.34c3.86,0,3.87-6,0-6A222.89,222.89,0,0,0,7.64,4.79c-3.79.68-2.19,6.47,1.6,5.79Z"/>
      <path d="M13.57,30.85,48.36,26c3.81-.53,2.19-6.32-1.6-5.79L12,25.07c-3.81.53-2.19,6.32,1.6,5.79Z"/>
      <path d="M8.44,61.72l31.78-4.26c3.77-.51,3.82-6.51,0-6L8.44,55.72c-3.77.51-3.82,6.51,0,6Z"/>
    </g>
  </g>
</svg><svg viewBox="65 -10 1 90">
  <title>1</title>
  <g id="Layer_2" data-name="Layer 2">
    <g id="Layer_2-2" data-name="Layer 2">
      <path d="M2.38,2.9A447.69,447.69,0,0,1,0,62.44c-.41,3.83,5.59,3.81,6,0A447.69,447.69,0,0,0,8.38,2.9c-.1-3.85-6.1-3.87-6,0Z"/>
    </g>
  </g>
</svg><svg viewBox="-10 -10 1 90">
  <title>2</title>
  <g id="Layer_2" data-name="Layer 2">
    <g id="Layer_2-2" data-name="Layer 2">
      <path d="M8.41,12.11A15.59,15.59,0,0,1,29.15,8.45c6.49,4.3,9,12.93,7,20.24C31.9,43.77,15.89,55.83,2,61.28l1.6,5.79a53.63,53.63,0,0,1,39.84-.93c3.63,1.34,5.19-4.46,1.6-5.79a58.64,58.64,0,0,0-43,.93c-3.48,1.46-2,7.21,1.6,5.79A71,71,0,0,0,30.36,49c6.91-7.58,13.5-17.29,12.35-28-1-9.1-7.09-17.71-16.14-20.19A21.74,21.74,0,0,0,3.23,9.08c-2.27,3.13,2.94,6.13,5.18,3Z"/>
    </g>
  </g>
</svg><svg viewBox="-100 -7 1 95">
  <title>A</title>
  <g id="Layer_2" data-name="Layer 2">
    <g id="Layer_2-2" data-name="Layer 2">
      <path d="M5.67,74.92a490.89,490.89,0,0,0,37.9-70.4L38.09,3.8Q52.22,38,64.36,73.05c1.26,3.63,7.06,2.07,5.79-1.6Q58,36.46,43.88,2.2c-.84-2-4.32-3.37-5.48-.72A490.89,490.89,0,0,1,.49,71.89c-2.11,3.25,3.08,6.26,5.18,3Z"/>
      <path d="M19.54,46.85a164.29,164.29,0,0,1,32,.94c3.82.49,3.78-5.52,0-6a164.29,164.29,0,0,0-32-.94c-3.83.26-3.86,6.26,0,6Z"/>
    </g>
  </g>
</svg></svg>
