<?xml version='1.0' encoding='ASCII' standalone='yes'?>
<svg xmlns="http://www.w3.org/2000/svg" viewBox="0 0 475.19 112.03">
  <defs>
    <style>.cls-1{stroke:#000;stroke-miterlimit:10;stroke-width:3px;}</style>
  </defs>
  <title>box</title>
  <g id="Layer_2" data-name="Layer 2">
    <g id="Layer_2-2" data-name="Layer 2">
      <path class="cls-1" d="M473.64,103.31q-6-23.85-9.92-48.07-2.07-13-3.49-26.07c-.56-5.15.43-13.23-3.1-17.66s-13.55-3.73-18.82-4.16c-8.93-.72-17.87-1.21-26.83-1.55-18.3-.7-36.63-.82-54.95-1Q245.78,3.73,135,4.54,76,5,17,5.93c.1-.68.19-1.36.3-2,.36-2.39-3.67-3.43-4-1-.16,1-.3,2.08-.46,3.12L9.62,6a1.9,1.9,0,1,0,0,3.8l2.59,0Q9,32.11,6.38,54.49q-1.48,13-2.73,26.09-.58,6.06-1.1,12.13c-.36,4.11-1.41,8.73-.93,12.82.79,6.65,9.73,4.78,14.92,4.7l29.12-.44,58.24-.88,235-3.56c44.23-.66,88.49-1.2,132.7.37A2,2,0,0,0,473.64,103.31Zm-226.22-.38-224.63,3.4c-4.14.06-13.09,1.73-15.77-1.1S6.57,94.62,6.9,90.84q1.23-14,2.74-28Q12.5,36.26,16.4,9.74,119.59,8.06,222.79,8q53.29,0,106.59.38c35.6.27,71.39-.11,106.88,2.62,4.89.38,12.55-.1,16.34,2.71,3.6,2.67,2.74,8.67,3.16,12.71q1.31,12.66,3.22,25.26,3.81,25.26,10,50.15C395.21,99.34,321.21,101.82,247.42,102.93Z"/>
    </g>
  </g>
<svg viewBox="175 -7 1 95">
  <title>A</title>
  <g id="Layer_2" data-name="Layer 2">
    <g id="Layer_2-2" data-name="Layer 2">
      <path d="M5.67,74.92a490.89,490.89,0,0,0,37.9-70.4L38.09,3.8Q52.22,38,64.36,73.05c1.26,3.63,7.06,2.07,5.79-1.6Q58,36.46,43.88,2.2c-.84-2-4.32-3.37-5.48-.72A490.89,490.89,0,0,1,.49,71.89c-2.11,3.25,3.08,6.26,5.18,3Z"/>
      <path d="M19.54,46.85a164.29,164.29,0,0,1,32,.94c3.82.49,3.78-5.52,0-6a164.29,164.29,0,0,0-32-.94c-3.83.26-3.86,6.26,0,6Z"/>
    </g>
  </g>
</svg><svg viewBox="90 -7 1 95">
  <title>A</title>
  <g id="Layer_2" data-name="Layer 2">
    <g id="Layer_2-2" data-name="Layer 2">
      <path d="M5.67,74.92a490.89,490.89,0,0,0,37.9-70.4L38.09,3.8Q52.22,38,64.36,73.05c1.26,3.63,7.06,2.07,5.79-1.6Q58,36.46,43.88,2.2c-.84-2-4.32-3.37-5.48-.72A490.89,490.89,0,0,1,.49,71.89c-2.11,3.25,3.08,6.26,5.18,3Z"/>
      <path d="M19.54,46.85a164.29,164.29,0,0,1,32,.94c3.82.49,3.78-5.52,0-6a164.29,164.29,0,0,0-32-.94c-3.83.26-3.86,6.26,0,6Z"/>
    </g>
  </g>
</svg><svg viewBox="-15 -7 1 95">
  <title>A</title>
  <g id="Layer_2" data-name="Layer 2">
    <g id="Layer_2-2" data-name="Layer 2">
      <path d="M5.67,74.92a490.89,490.89,0,0,0,37.9-70.4L38.09,3.8Q52.22,38,64.36,73.05c1.26,3.63,7.06,2.07,5.79-1.6Q58,36.46,43.88,2.2c-.84-2-4.32-3.37-5.48-.72A490.89,490.89,0,0,1,.49,71.89c-2.11,3.25,3.08,6.26,5.18,3Z"/>
      <path d="M19.54,46.85a164.29,164.29,0,0,1,32,.94c3.82.49,3.78-5.52,0-6a164.29,164.29,0,0,0-32-.94c-3.83.26-3.86,6.26,0,6Z"/>
    </g>
  </g>
</svg><svg viewBox="-90 -10 1 90">
  <title>D</title>
  <g id="Layer_2" data-name="Layer 2">
    <g id="Layer_2-2" data-name="Layer 2">
      <path d="M4,2.9q-.37,30.53,1.85,61c.28,3.83,6.28,3.86,6,0Q9.63,33.44,10,2.9C10-1,4-1,4,2.9Z"/>
      <path d="M2.85,13.83c8.56-1.14,17.87-2.53,26.17.71,8,3.12,13,10.25,11.61,18.93C38.73,45.78,21.38,70.08,7,60c-3.17-2.21-6.18,3-3,5.18,18.2,12.68,39.61-14,42.49-30.14a22.56,22.56,0,0,0-10-23.42C26.44,5.1,14.11,6.33,2.85,7.83c-3.77.5-3.82,6.51,0,6Z"/>
    </g>
  </g>
</svg></svg>
