<?xml version='1.0' encoding='ASCII' standalone='yes'?>
<svg xmlns="http://www.w3.org/2000/svg" viewBox="0 0 475.19 112.03">
  <defs>
    <style>.cls-1{stroke:#000;stroke-miterlimit:10;stroke-width:3px;}</style>
  </defs>
  <title>box</title>
  <g id="Layer_2" data-name="Layer 2">
    <g id="Layer_2-2" data-name="Layer 2">
      <path class="cls-1" d="M473.64,103.31q-6-23.85-9.92-48.07-2.07-13-3.49-26.07c-.56-5.15.43-13.23-3.1-17.66s-13.55-3.73-18.82-4.16c-8.93-.72-17.87-1.21-26.83-1.55-18.3-.7-36.63-.82-54.95-1Q245.78,3.73,135,4.54,76,5,17,5.93c.1-.68.19-1.36.3-2,.36-2.39-3.67-3.43-4-1-.16,1-.3,2.08-.46,3.12L9.62,6a1.9,1.9,0,1,0,0,3.8l2.59,0Q9,32.11,6.38,54.49q-1.48,13-2.73,26.09-.58,6.06-1.1,12.13c-.36,4.11-1.41,8.73-.93,12.82.79,6.65,9.73,4.78,14.92,4.7l29.12-.44,58.24-.88,235-3.56c44.23-.66,88.49-1.2,132.7.37A2,2,0,0,0,473.64,103.31Zm-226.22-.38-224.63,3.4c-4.14.06-13.09,1.73-15.77-1.1S6.57,94.62,6.9,90.84q1.23-14,2.74-28Q12.5,36.26,16.4,9.74,119.59,8.06,222.79,8q53.29,0,106.59.38c35.6.27,71.39-.11,106.88,2.62,4.89.38,12.55-.1,16.34,2.71,3.6,2.67,2.74,8.67,3.16,12.71q1.31,12.66,3.22,25.26,3.81,25.26,10,50.15C395.21,99.34,321.21,101.82,247.42,102.93Z"/>
    </g>
  </g>
<svg viewBox="150 -10 1 90">
  <title>D</title>
  <g id="Layer_2" data-name="Layer 2">
    <g id="Layer_2-2" data-name="Layer 2">
      <path d="M4,2.9q-.37,30.53,1.85,61c.28,3.83,6.28,3.86,6,0Q9.63,33.44,10,2.9C10-1,4-1,4,2.9Z"/>
      <path d="M2.85,13.83c8.56-1.14,17.87-2.53,26.17.71,8,3.12,13,10.25,11.61,18.93C38.73,45.78,21.38,70.08,7,60c-3.17-2.21-6.18,3-3,5.18,18.2,12.68,39.61-14,42.49-30.14a22.56,22.56,0,0,0-10-23.42C26.44,5.1,14.11,6.33,2.85,7.83c-3.77.5-3.82,6.51,0,6Z"/>
    </g>
  </g>
</svg><svg viewBox="70 -10 1 90">
  <title>9</title>
  <g id="Layer_2" data-name="Layer 2">
    <g id="Layer_2-2" data-name="Layer 2">
      <path d="M30.68,6.54c-11.44-16.33-36.08,1-29.62,18C4.13,32.68,15.54,32,22,29.15A23.32,23.32,0,0,0,36,9.49H30a495.51,495.51,0,0,1-1.25,54.89c-.3,3.85,5.7,3.83,6,0A495.51,495.51,0,0,0,36,9.49c-.13-3.89-5.72-3.83-6,0a16.8,16.8,0,0,1-7.54,12.6c-3.32,2.27-9.74,4.63-13.63,2.31C-.77,18.65,16.41-3.4,25.5,9.57c2.2,3.14,7.4.14,5.18-3Z"/>
    </g>
  </g>
</svg><svg viewBox="-10 -10 1 85">
  <title>4</title>
  <g id="Layer_2" data-name="Layer 2">
    <g id="Layer_2-2" data-name="Layer 2">
      <path d="M3.94,2.16A184.26,184.26,0,0,0,.53,25.89C.18,30.57-1.64,38.4,4.42,40c3.18.85,7.21.08,10.43,0l12-.36,25.94-.78c3.85-.12,3.87-6.12,0-6L13.85,34c-1.86.06-6.57,1.18-7.73-.43-1-1.33.43-8.08.56-9.64a172.58,172.58,0,0,1,3-20.21c.78-3.77-5-5.38-5.79-1.6Z"/>
      <path d="M23.87,11.55,23,63.85c-.07,3.86,5.93,3.86,6,0l.91-52.29c.07-3.86-5.93-3.86-6,0Z"/>
    </g>
  </g>
</svg><svg viewBox="-90 -15 1 90">
  <title>C</title>
  <g id="Layer_2" data-name="Layer 2">
    <g id="Layer_2-2" data-name="Layer 2">
      <path d="M36.37,0C27.16.1,17,.47,9.32,6.27,2,11.8-.89,21.13.23,30c2.24,17.71,20,30.76,37.56,28.5,3.78-.49,3.82-6.49,0-6C24,54.28,9.49,45.32,6.49,31.32c-1.67-7.8.6-16.77,7.69-21.15,6.53-4,14.76-4.08,22.19-4.16,3.86,0,3.87-6,0-6Z"/>
    </g>
  </g>
</svg></svg>
